<svg width="840" height="500" viewBox="0 0 840 500" xmlns="http://www.w3.org/2000/svg" font-family="'SF Mono','Fira Code',monospace">
  <rect width="840" height="500" fill="#0d1117"/>

  <!-- Browser chrome -->
  <rect width="840" height="40" fill="#161b22"/>
  <rect x="0" y="39" width="840" height="1" fill="#21262d"/>
  <rect x="180" y="10" width="480" height="22" rx="4" fill="#0d1117" stroke="#21262d" stroke-width="1"/>
  <text x="420" y="25" text-anchor="middle" fill="#484f58" font-size="11">localhost:3000/invoices</text>
  <circle cx="20" cy="20" r="6" fill="#f85149" opacity="0.7"/>
  <circle cx="40" cy="20" r="6" fill="#ffa657" opacity="0.7"/>
  <circle cx="60" cy="20" r="6" fill="#3fb950" opacity="0.7"/>

  <!-- Badge — picking mode (green) -->
  <rect x="696" y="52" width="128" height="22" rx="11" fill="#238636"/>
  <text x="760" y="67" text-anchor="middle" fill="white" font-size="10" font-weight="600">⬡ Picking…</text>

  <!-- Sidebar -->
  <rect x="0" y="40" width="180" height="460" fill="#0d1117"/>
  <rect x="179" y="40" width="1" height="460" fill="#21262d"/>
  <rect x="16" y="70" width="148" height="32" rx="6" fill="#1f6feb22"/>
  <text x="36" y="91" fill="#58a6ff" font-size="12">Invoices</text>
  <text x="36" y="131" fill="#484f58" font-size="12">Products</text>
  <text x="36" y="167" fill="#484f58" font-size="12">Clients</text>
  <text x="36" y="203" fill="#484f58" font-size="12">Metrics</text>

  <!-- Main content -->
  <text x="210" y="80" fill="#f0f6fc" font-size="16" font-weight="600">Invoices</text>

  <!-- Table header -->
  <rect x="200" y="96" width="620" height="32" rx="4" fill="#161b22"/>
  <text x="220" y="117" fill="#484f58" font-size="11">Date</text>
  <text x="370" y="117" fill="#484f58" font-size="11">Customer</text>
  <text x="560" y="117" fill="#484f58" font-size="11">Amount</text>
  <text x="720" y="117" fill="#484f58" font-size="11">Status</text>

  <!-- Row 1 — blue hover highlight -->
  <rect x="198" y="129" width="624" height="44" rx="3" fill="#1f6feb0a" stroke="#1f6feb" stroke-width="2"/>
  <text x="220" y="156" fill="#e2e8f0" font-size="12">Jan 12, 2026</text>
  <text x="370" y="156" fill="#e2e8f0" font-size="12">Stone Store #1</text>
  <text x="560" y="156" fill="#e2e8f0" font-size="12">R$ 1.250,00</text>
  <rect x="710" y="142" width="52" height="20" rx="10" fill="#3fb95022"/>
  <text x="736" y="156" text-anchor="middle" fill="#3fb950" font-size="10">Issued</text>

  <!-- Row 2 -->
  <rect x="200" y="177" width="620" height="1" fill="#21262d"/>
  <text x="220" y="205" fill="#484f58" font-size="12">Jan 10, 2026</text>
  <text x="370" y="205" fill="#484f58" font-size="12">Stone Store #2</text>
  <text x="560" y="205" fill="#484f58" font-size="12">R$ 890,00</text>

  <!-- Row 3 -->
  <rect x="200" y="222" width="620" height="1" fill="#21262d"/>
  <text x="220" y="249" fill="#484f58" font-size="12">Jan 8, 2026</text>
  <text x="370" y="249" fill="#484f58" font-size="12">Stone Store #3</text>
  <text x="560" y="249" fill="#484f58" font-size="12">R$ 3.400,00</text>

  <!-- Tooltip -->
  <rect x="344" y="95" width="256" height="80" rx="8" fill="#161b22" stroke="#30363d" stroke-width="1"/>
  <text x="360" y="116" fill="#58a6ff" font-size="13" font-weight="700">&lt;InvoiceRow&gt;</text>
  <text x="360" y="132" fill="#3fb950" font-size="10">src/pages/invoices/components/invoice-row.tsx:8</text>
  <text x="360" y="148" fill="#484f58" font-size="10">in &lt;InvoicesTable&gt;</text>
  <text x="360" y="165" fill="#484f58" font-size="10">click to select</text>

  <!-- Arrow from tooltip to row -->
  <line x1="464" y1="175" x2="464" y2="151" stroke="#30363d" stroke-width="1" stroke-dasharray="3,2"/>
</svg>
