<svg width="840" height="500" viewBox="0 0 840 500" xmlns="http://www.w3.org/2000/svg" font-family="'SF Mono', 'Fira Code', monospace">
  <!-- Background -->
  <rect width="840" height="500" fill="#0d1117"/>

  <!-- Browser chrome -->
  <rect width="840" height="40" fill="#161b22"/>
  <rect x="0" y="39" width="840" height="1" fill="#21262d"/>
  <rect x="180" y="10" width="480" height="22" rx="4" fill="#0d1117" stroke="#21262d" stroke-width="1"/>
  <text x="420" y="25" text-anchor="middle" fill="#484f58" font-size="11">localhost:3000/invoices</text>
  <circle cx="20" cy="20" r="6" fill="#f85149" opacity="0.7"/>
  <circle cx="40" cy="20" r="6" fill="#ffa657" opacity="0.7"/>
  <circle cx="60" cy="20" r="6" fill="#3fb950" opacity="0.7"/>

  <!-- Badge top-right (OFF state) -->
  <rect x="700" y="54" width="126" height="22" rx="11" fill="#21262d"/>
  <text x="763" y="69" text-anchor="middle" fill="#8b949e" font-size="10" font-weight="600">⬡ Selector OFF</text>

  <!-- Page sidebar -->
  <rect x="0" y="40" width="180" height="460" fill="#0d1117"/>
  <rect x="179" y="40" width="1" height="460" fill="#21262d"/>
  <rect x="16" y="70" width="148" height="32" rx="6" fill="#1f6feb22"/>
  <text x="36" y="91" fill="#58a6ff" font-size="12">Invoices</text>
  <rect x="16" y="112" width="148" height="28" rx="6" fill="none"/>
  <text x="36" y="131" fill="#484f58" font-size="12">Products</text>
  <rect x="16" y="148" width="148" height="28" rx="6" fill="none"/>
  <text x="36" y="167" fill="#484f58" font-size="12">Clients</text>

  <!-- Main content area -->
  <rect x="180" y="40" width="660" height="460" fill="#0d1117"/>
  <text x="210" y="80" fill="#f0f6fc" font-size="16" font-weight="600">Invoices</text>

  <!-- Table header -->
  <rect x="200" y="96" width="380" height="32" rx="4" fill="#161b22"/>
  <text x="220" y="117" fill="#484f58" font-size="11">Date</text>
  <text x="330" y="117" fill="#484f58" font-size="11">Customer</text>

  <!-- Selected row - orange highlight -->
  <rect x="198" y="128" width="384" height="44" rx="4" fill="#ffa6570a" stroke="#ffa657" stroke-width="2"/>
  <text x="220" y="155" fill="#8b949e" font-size="12">Jan 12, 2026</text>
  <text x="330" y="155" fill="#8b949e" font-size="12">Stone Store #1</text>

  <!-- Row 2 -->
  <rect x="200" y="175" width="380" height="1" fill="#21262d"/>
  <text x="220" y="202" fill="#484f58" font-size="12">Jan 10, 2026</text>
  <text x="330" y="202" fill="#484f58" font-size="12">Stone Store #2</text>

  <!-- Right panel -->
  <rect x="590" y="48" width="246" height="446" rx="0" fill="#161b22" stroke="#30363d" stroke-width="1"/>

  <!-- Panel header -->
  <rect x="590" y="48" width="246" height="60" fill="#161b22"/>
  <rect x="590" y="107" width="246" height="1" fill="#21262d"/>

  <!-- Component badge -->
  <rect x="606" y="58" width="80" height="16" rx="4" fill="#58a6ff22" stroke="#58a6ff30" stroke-width="1"/>
  <text x="646" y="70" text-anchor="middle" fill="#58a6ff" font-size="9" font-weight="600">INVOICES</text>

  <!-- Component name + counter -->
  <text x="606" y="96" fill="#58a6ff" font-size="13" font-weight="700">&lt;InvoiceRow&gt;</text>
  <text x="718" y="96" fill="#484f58" font-size="10">1/4</text>

  <!-- Nav button -->
  <rect x="606" y="114" width="214" height="26" rx="7" fill="#21262d" stroke="#30363d" stroke-width="1"/>
  <text x="713" y="131" text-anchor="middle" fill="#8b949e" font-size="10" font-weight="600">↑ Parent</text>

  <!-- Breadcrumb -->
  <text x="606" y="158" fill="#ffa657" font-size="10" font-weight="700">&lt;InvoiceRow&gt;</text>
  <text x="683" y="158" fill="#484f58" font-size="10"> › &lt;InvoicesTable&gt;</text>

  <!-- Divider -->
  <rect x="606" y="165" width="214" height="1" fill="#21262d"/>

  <!-- Snippet box -->
  <rect x="606" y="172" width="214" height="168" rx="6" fill="#0d1117" stroke="#21262d" stroke-width="1"/>
  <text x="618" y="189" fill="#3fb950" font-size="10" font-weight="600">[Component: &lt;InvoiceRow&gt;]</text>
  <text x="618" y="205" fill="#8b949e" font-size="9.5">File: src/pages/invoices/</text>
  <text x="618" y="218" fill="#8b949e" font-size="9.5">  components/invoice-row.tsx:8</text>
  <text x="618" y="234" fill="#8b949e" font-size="9.5">Parent: &lt;InvoicesTable&gt;</text>
  <text x="618" y="250" fill="#8b949e" font-size="9.5">Route: /invoices</text>
  <text x="618" y="266" fill="#8b949e" font-size="9.5">DOM: &lt;tr class="invoice-row"&gt;</text>
  <text x="618" y="282" fill="#8b949e" font-size="9.5">Selector: table &gt; tbody &gt; tr</text>
  <text x="618" y="300" fill="#484f58" font-size="9">HTML:</text>
  <text x="618" y="314" fill="#484f58" font-size="9">&lt;tr class="invoice-row"&gt;&lt;td&gt;Jan…</text>
  <text x="618" y="328" fill="#484f58" font-size="9">&lt;td&gt;Stone Store #1&lt;/td&gt;…</text>

  <!-- Copy button -->
  <rect x="606" y="350" width="214" height="32" rx="7" fill="#1f6feb"/>
  <text x="713" y="371" text-anchor="middle" fill="white" font-size="11" font-weight="600">Copy context to Claude</text>

  <!-- Close button -->
  <text x="824" y="64" fill="#484f58" font-size="14" text-anchor="middle">✕</text>
</svg>
